<svg xmlns="http://www.w3.org/2000/svg" width="264" height="42" viewBox="0 0 264 42" fill="none"><path d="M45.3638 16.9037C42.5023 16.8662 40.4151 18.7738 39.7828 21.7747C39.0085 25.4399 37.1464 27.0073 35.2334 27.1493C32.9962 27.3155 31.3377 26.3509 30.2418 25.3489C29.1835 24.3789 29.221 23.1438 29.2719 21.9622C29.497 16.7001 37.5456 17.7691 37.7894 8.83097C37.9154 4.23865 33.8535 0 28.6771 0C24.4117 0 20.7116 3.14549 20.0793 7.50471C19.7979 9.43381 19.7953 12.0167 17.1669 13.6537C13.5284 15.9204 11.8752 14.2244 7.80003 13.7073C3.45421 13.1554 0.0488165 16.8581 0.000589143 20.6279C-0.0503175 24.3977 3.20503 27.3208 6.96945 27.1788C14.8278 26.8841 12.2798 17.4235 17.9626 15.4649C22.646 13.8493 25.8933 17.954 26.7561 20.6413C27.9698 24.4218 25.7942 26.0803 23.6025 28.347C21.9548 29.7268 20.8938 31.7872 20.8643 34.1048C20.808 38.3247 24.1839 41.789 28.4038 41.8453C32.1093 41.8935 35.0539 39.6911 36.1417 35.2971C36.5569 33.6225 36.6079 31.6104 37.2161 30.1126C38.0225 28.1005 39.5524 26.6429 42.2505 27.3154C48.1449 28.7837 50.5241 25.2551 50.5643 22.2757C50.6045 19.2936 48.3485 16.9493 45.3665 16.9091L45.3638 16.9037Z" fill="white"></path><path d="M124.705 14.4629C124.705 11.2477 127.301 8.65149 130.516 8.65149H142.139L143.302 12.5258H130.519C129.434 12.5258 128.582 13.3778 128.582 14.4629V22.2114C128.582 23.2965 129.434 24.1486 130.519 24.1486H143.302L142.528 28.0228H130.519C127.304 28.0228 124.708 25.4266 124.708 22.2114V14.4629H124.705Z" fill="white"></path><path d="M157.845 8.65148H150.097C149.052 8.65148 148.071 8.93012 147.225 9.4124L148.16 12.5258H144.623C144.409 13.1313 144.288 13.7823 144.288 14.4629V22.2114C144.288 22.892 144.411 23.543 144.623 24.1485C145.127 25.5766 146.169 26.7421 147.509 27.4092C148.288 27.7977 149.164 28.0201 150.097 28.0201H157.845C161.061 28.0201 163.657 25.4239 163.657 22.2087V14.4602C163.657 11.245 161.061 8.6488 157.845 8.6488V8.65148ZM159.782 22.2114C159.782 23.2965 158.93 24.1485 157.845 24.1485H150.097C149.012 24.1485 148.16 23.2965 148.16 22.2114V14.4629C148.16 13.3778 149.012 12.5258 150.097 12.5258H157.845C158.93 12.5258 159.782 13.3778 159.782 14.4629V22.2114Z" fill="white"></path><path d="M178.827 8.65149H171.078C170.028 8.65149 169.045 8.93281 168.195 9.42045L169.128 12.5258H165.604C165.39 13.1313 165.27 13.7824 165.27 14.4629V28.0228H169.144V14.4629C169.144 13.3778 169.996 12.5258 171.081 12.5258H178.829C179.915 12.5258 180.767 13.3778 180.767 14.4629V28.0228H184.641V14.4629C184.641 11.2477 182.045 8.65149 178.829 8.65149H178.827Z" fill="white"></path><path d="M199.926 8.65149H192.178C191.128 8.65149 190.144 8.93281 189.295 9.42045L190.227 12.5258H186.704C186.49 13.1313 186.369 13.7824 186.369 14.4629V28.0228H190.243V14.4629C190.243 13.3778 191.095 12.5258 192.181 12.5258H199.929C201.014 12.5258 201.866 13.3778 201.866 14.4629V28.0228H205.74V14.4629C205.74 11.2477 203.144 8.65149 199.929 8.65149H199.926Z" fill="white"></path><path d="M226.719 20.2743V14.4629C226.719 11.2477 224.123 8.65149 220.908 8.65149H213.159C212.114 8.65149 211.133 8.92746 210.287 9.40974L211.222 12.5258H207.677C207.463 13.1313 207.348 13.7824 207.348 14.4629V22.2114C207.348 22.892 207.466 23.543 207.677 24.1486C208.181 25.5766 209.226 26.7475 210.568 27.4146C211.348 27.8031 212.227 28.0228 213.159 28.0228H224.782L225.945 24.1486H213.162C212.077 24.1486 211.225 23.2965 211.225 22.2114V20.2743H226.722H226.719ZM211.222 14.4629C211.222 13.3778 212.074 12.5258 213.159 12.5258H220.908C221.993 12.5258 222.845 13.3778 222.845 14.4629V16.4H211.222V14.4629Z" fill="white"></path><path d="M228.209 14.4629C228.209 11.2477 230.805 8.65149 234.02 8.65149H245.375L246.538 12.5258H234.02C232.935 12.5258 232.083 13.3778 232.083 14.4629V22.2114C232.083 23.2965 232.935 24.1486 234.02 24.1486H246.806L246.032 28.0228H234.023C230.808 28.0228 228.212 25.4266 228.212 22.2114V14.4629H228.209Z" fill="white"></path><path d="M252.377 12.5258H248.503L247.34 8.65148H252.377V0.902954H256.251V8.65148H264V12.5258H256.251V22.2114C256.251 23.2965 257.103 24.1486 258.188 24.1486H264V28.0228H258.188C254.973 28.0228 252.377 25.4266 252.377 22.2114V12.5258Z" fill="white"></path><path d="M76.0119 8.23081C79.2967 8.23081 81.9492 10.8833 81.9492 14.1681V22.0855C81.9492 25.3703 79.2967 28.0228 76.0119 28.0228H62.1572V0.313477H64.1372V8.23081H76.0119ZM79.9692 14.1681C79.9692 11.9925 78.1875 10.2108 76.0119 10.2108H64.1372V26.0428H76.0119C78.1902 26.0428 79.9692 24.261 79.9692 22.0855V14.1681Z" fill="white"></path><path d="M83.6367 0.313477H85.6167V2.29348H83.6367V0.313477ZM83.6367 8.23081H85.6167V28.0228H83.6367V8.23081Z" fill="white"></path><path d="M93.368 10.2108C91.1924 10.2108 89.4107 11.9926 89.4107 14.1682V28.0228H87.4307V14.1682C87.4307 10.8833 90.0832 8.23083 93.368 8.23083H100.294C102.352 8.23083 104.174 9.29987 105.243 10.8833C106.312 9.29987 108.093 8.23083 110.191 8.23083H117.117C120.402 8.23083 123.055 10.8833 123.055 14.1682V28.0228H121.075V14.1682C121.075 11.9926 119.293 10.2108 117.117 10.2108H110.191C108.053 10.2108 106.234 11.9122 106.234 14.0101V28.0228H104.254V14.0101C104.254 11.9122 102.395 10.2108 100.297 10.2108H93.3707H93.368Z" fill="white"></path><path d="M62.8912 37.5022H70.1843L70.0101 38.0809H62.8912V41.264H70.1843V41.8427H62.3125V33.7405H70.1843V34.3192H62.8912V37.5022Z" fill="white"></path><path d="M74.9315 34.3192C74.2938 34.3192 73.774 34.839 73.774 35.4767V41.8427H73.1953V35.4767C73.1953 34.5148 73.9696 33.7405 74.9315 33.7405H79.5613C80.5232 33.7405 81.2975 34.5148 81.2975 35.4767V41.8427H80.7188V35.4767C80.7188 34.839 80.199 34.3192 79.5613 34.3192H74.9315Z" fill="white"></path><path d="M86.161 34.3192C85.5233 34.3192 85.0035 34.839 85.0035 35.4767V40.1065C85.0035 40.7442 85.5233 41.264 86.161 41.264H91.9483V37.2129H92.527V41.8427H86.161C85.1991 41.8427 84.4248 41.0684 84.4248 40.1065V35.4767C84.4248 34.5148 85.1991 33.7405 86.161 33.7405H92.3555L92.5297 34.3192H86.1637H86.161Z" fill="white"></path><path d="M96.3473 37.5022H103.64L103.466 38.0809H96.3473V41.264H103.64V41.8427H95.7686V33.7405H103.64V34.3192H96.3473V37.5022Z" fill="white"></path><path d="M108.386 34.3192C107.748 34.3192 107.228 34.839 107.228 35.4767V41.8427H106.649V35.4767C106.649 34.5148 107.424 33.7405 108.386 33.7405H113.015C113.977 33.7405 114.752 34.5148 114.752 35.4767V41.8427H114.173V35.4767C114.173 34.839 113.653 34.3192 113.015 34.3192H108.386Z" fill="white"></path><path d="M125.52 38.0809H118.575V41.8427H117.996V33.7405H118.575V37.5022H125.52V33.7405H126.098V41.8427H125.52V38.0809Z" fill="white"></path><path d="M135.706 33.7405C136.668 33.7405 137.442 34.5148 137.442 35.4767V41.8427H136.863V38.0809H129.919V41.8427H129.34V35.4767C129.34 34.5148 130.114 33.7405 131.076 33.7405H135.706ZM131.076 34.3192C130.438 34.3192 129.919 34.839 129.919 35.4767V37.5022H136.863V35.4767C136.863 34.839 136.344 34.3192 135.706 34.3192H131.076Z" fill="white"></path><path d="M147.745 37.9416C148.023 38.2658 148.787 39.2036 148.787 40.6852V41.8427H148.208V40.6852C148.208 39.5867 147.41 38.0809 146.935 38.0809H141.263V41.8427H140.685V33.7405H147.051C148.012 33.7405 148.787 34.5148 148.787 35.4767V36.3448C148.787 37.0628 148.358 37.6764 147.745 37.9416ZM147.051 37.5022C147.688 37.5022 148.208 36.9824 148.208 36.3448V35.4767C148.208 34.839 147.688 34.3192 147.051 34.3192H141.263V37.5022H147.051Z" fill="white"></path><path d="M151.914 33.7405H152.493V41.8427H151.914V33.7405Z" fill="white"></path><path d="M162.1 33.7405C163.062 33.7405 163.837 34.5148 163.837 35.4767V41.8427H163.258V38.0809H156.313V41.8427H155.734V35.4767C155.734 34.5148 156.509 33.7405 157.471 33.7405H162.1ZM157.471 34.3192C156.833 34.3192 156.313 34.839 156.313 35.4767V37.5022H163.258V35.4767C163.258 34.839 162.738 34.3192 162.1 34.3192H157.471Z" fill="white"></path><path d="M173.214 33.7405H173.793V41.8427H173.214V33.7405Z" fill="white"></path><path d="M178.768 34.3192C178.131 34.3192 177.611 34.839 177.611 35.4767V41.8427H177.032V35.4767C177.032 34.5148 177.807 33.7405 178.768 33.7405H183.398C184.36 33.7405 185.134 34.5148 185.134 35.4767V41.8427H184.556V35.4767C184.556 34.839 184.036 34.3192 183.398 34.3192H178.768Z" fill="white"></path><path d="M187.914 33.7405H196.016V34.3192H192.255V41.8427H191.676V34.3192H187.914V33.7405Z" fill="white"></path><path d="M199.49 37.5022H206.783L206.609 38.0809H199.49V41.264H206.783V41.8427H198.911V33.7405H206.783V34.3192H199.49V37.5022Z" fill="white"></path><path d="M211.415 34.3192C210.777 34.3192 210.257 34.839 210.257 35.4767V40.1065C210.257 40.7442 210.777 41.264 211.415 41.264H217.202V37.2129H217.781V41.8427H211.415C210.453 41.8427 209.679 41.0684 209.679 40.1065V35.4767C209.679 34.5148 210.453 33.7405 211.415 33.7405H217.607L217.781 34.3192H211.415Z" fill="white"></path><path d="M228.083 37.9416C228.362 38.2658 229.126 39.2036 229.126 40.6852V41.8427H228.547V40.6852C228.547 39.5867 227.749 38.0809 227.274 38.0809H221.602V41.8427H221.023V33.7405H227.389C228.351 33.7405 229.126 34.5148 229.126 35.4767V36.3448C229.126 37.0628 228.697 37.6764 228.083 37.9416ZM227.389 37.5022C228.027 37.5022 228.547 36.9824 228.547 36.3448V35.4767C228.547 34.839 228.027 34.3192 227.389 34.3192H221.602V37.5022H227.389Z" fill="white"></path><path d="M238.619 33.7405C239.581 33.7405 240.355 34.5148 240.355 35.4767V41.8427H239.776V38.0809H232.832V41.8427H232.253V35.4767C232.253 34.5148 233.027 33.7405 233.989 33.7405H238.619ZM233.989 34.3192C233.351 34.3192 232.832 34.839 232.832 35.4767V37.5022H239.776V35.4767C239.776 34.839 239.257 34.3192 238.619 34.3192H233.989Z" fill="white"></path><path d="M251.699 40.1065C251.699 41.0684 250.925 41.8427 249.963 41.8427H243.597V33.7405H249.963C250.925 33.7405 251.699 34.5148 251.699 35.4767V40.1065ZM251.12 35.4767C251.12 34.839 250.6 34.3192 249.963 34.3192H244.175V41.264H249.963C250.6 41.264 251.12 40.7442 251.12 40.1065V35.4767Z" fill="white"></path><path d="M261.192 33.7405C262.154 33.7405 262.928 34.5148 262.928 35.4767V41.8427H262.35V38.0809H255.405V41.8427H254.826V35.4767C254.826 34.5148 255.6 33.7405 256.562 33.7405H261.192ZM256.562 34.3192C255.925 34.3192 255.405 34.839 255.405 35.4767V37.5022H262.35V35.4767C262.35 34.839 261.83 34.3192 261.192 34.3192H256.562Z" fill="white"></path></svg>