<svg width="646" height="165" viewBox="0 0 646 165" fill="none" xmlns="http://www.w3.org/2000/svg">
<path d="M325.225 86.4286H319.183V58.0135H336.534L340.086 61.5654V72.7926L335.35 77.5693H325.225V86.4286ZM325.225 72.3843H332.656L334.084 70.9554V63.4434H325.225V72.3843ZM355.044 86.4286H349.002V58.0135H366.067L369.66 61.5654V71.6903L366.884 74.5073L369.823 77.4468V86.4286H363.781V78.4675L362.311 77.0385H355.044V86.4286ZM363.659 70.6696V62.9535H355.044V72.0986H362.23L363.659 70.6696ZM396.94 86.4286H382.039L378.446 82.8359V61.5654L382.039 58.0135H396.94L400.533 61.5654V82.8359L396.94 86.4286ZM384.488 63.4434V80.9579H394.532V63.4434H384.488ZM422.041 86.4286H411.058L407.506 82.8359V74.8747H413.508V80.9579H419.591V57.8502H425.633V82.8359L422.041 86.4286ZM454.365 86.4286H435.748V58.0135H454.161V63.4434H441.791V69.8939H451.548V74.5481H441.791V80.9579H454.365V86.4286ZM460.084 63.4434V58.0135H481.069V63.4434H473.597V86.4286H467.555V63.4434H460.084ZM506.369 86.4286H491.468L487.875 82.8359V61.5654L491.468 58.0135H506.369L509.962 61.5654V82.8359L506.369 86.4286ZM493.917 63.4434V80.9579H503.96V63.4434H493.917ZM535.307 86.4286H521.998L518.405 82.8359V77.8959H524.284V81.4886H532.98V74.6706H522.079L518.527 71.1187V61.5654L522.079 58.0135H535.062L538.655 61.5654V66.832H532.776V62.9535H524.406V69.7306H535.307L538.859 73.3233V82.8359L535.307 86.4286ZM578.104 86.4286H559.487V58.0135H577.9V63.4434H565.529V69.8939H575.287V74.5481H565.529V80.9579H578.104V86.4286ZM336.248 124.429H322.081L318.489 120.836V99.5654L322.081 96.0135H336.248L339.8 99.5654V106.179H333.758V101.443H324.531V118.958H333.758V114.263H339.8V120.836L336.248 124.429ZM366.364 124.429H351.462L347.869 120.836V99.5654L351.462 96.0135H366.364L369.956 99.5654V120.836L366.364 124.429ZM353.912 101.443V118.958H363.955V101.443H353.912ZM385.258 124.429H379.379V96.0135H385.258V99.5654L397.343 113.161C397.288 112.371 397.22 111.487 397.139 110.507C397.084 109.527 397.057 108.67 397.057 107.935V96.0135H402.936V124.429H397.057V120.836L384.972 107.241C385.054 108.03 385.122 108.915 385.177 109.894C385.231 110.874 385.258 111.745 385.258 112.507V124.429ZM429.028 124.429H415.719L412.126 120.836V115.896H418.005V119.489H426.701V112.671H415.8L412.248 109.119V99.5654L415.8 96.0135H428.783L432.376 99.5654V104.832H426.497V100.953H418.127V107.731H429.028L432.58 111.323V120.836L429.028 124.429ZM457.568 96.0135H463.611V120.836L460.018 124.429H445.157L441.564 120.836V96.0135H447.607V118.958H457.568V96.0135ZM490.485 124.429H473.501V96.0135H479.544V118.958H490.485V124.429ZM492.096 101.443V96.0135H513.081V101.443H505.609V124.429H499.567V101.443H492.096ZM538.381 124.429H523.48L519.887 120.836V99.5654L523.48 96.0135H538.381L541.974 99.5654V120.836L538.381 124.429ZM525.929 101.443V118.958H535.972V101.443H525.929ZM557.439 124.429H551.397V96.0135H568.462L572.055 99.5654V109.69L569.279 112.507L572.218 115.447V124.429H566.176V116.467L564.706 115.039H557.439V124.429ZM566.053 108.67V100.953H557.439V110.099H564.624L566.053 108.67ZM581.535 124.429V96.0135H587.577V124.429H581.535ZM601.434 124.429H595.392V118.917L603.189 96.0135H611.436L619.234 118.876V124.429H613.192V119.57L612.539 117.611H602.087L601.434 119.57V124.429ZM607.313 100.994L603.312 112.671H611.314L607.313 100.994Z" fill="#212121"/>
<path d="M327.731 51.3899H320.466L319.092 50.0348V42.845L320.466 41.4899H327.731L329.105 42.845V50.0348L327.731 51.3899ZM320.616 42.8638V50.016H327.599V42.8638H320.616ZM323.402 49.0561H322.085V43.8237H325.51L326.169 44.5201V46.2705L325.604 46.854L326.244 47.4939V49.0561H324.945V47.7009L324.607 47.381H323.402V49.0561ZM324.87 46.0446V44.8589H323.402V46.3458H324.588L324.87 46.0446Z" fill="#212121"/>
<g clip-path="url(#clip0_153_2739)">
<path fill-rule="evenodd" clip-rule="evenodd" d="M209.449 41.8658L201.803 29.4493C201.797 29.4388 201.785 29.4324 201.773 29.4324V29.4324L209.449 41.8658Z" fill="#212121"/>
<path fill-rule="evenodd" clip-rule="evenodd" d="M69.3614 58.3993C70.0193 58.3993 70.5999 58.7301 70.946 59.2345C71.091 59.4458 71.1319 59.7065 71.1319 59.9627V136.389C71.1319 137.45 71.9923 138.309 73.0532 138.309L100.089 138.297C101.149 138.297 102.008 137.437 102.008 136.377V62.9019C102.008 62.4269 102.184 61.9688 102.502 61.616L104.83 59.0339C105.194 58.6299 105.713 58.3993 106.256 58.3993H114.493C115.554 58.3993 116.414 59.2592 116.414 60.3198V136.382C116.414 137.446 117.278 138.307 118.341 138.303L147.37 138.197L275.66 138.309C276.185 138.31 276.688 138.095 277.051 137.714L290.979 123.118C291.32 122.76 291.51 122.286 291.51 121.792V90.9098C291.51 90.4161 291.32 89.9413 290.979 89.5841L284.16 82.4372C283.452 81.6951 283.452 80.5276 284.16 79.7856L290.262 73.3909C290.603 73.0337 290.793 72.5589 290.793 72.0651V41.4757C290.793 40.9782 290.6 40.5001 290.255 40.142L276.319 25.7025C275.957 25.3275 275.458 25.1157 274.937 25.1157H211.369C210.309 25.1157 209.449 25.9755 209.449 27.0362V27.7214C209.449 29.6203 206.987 30.3673 205.932 28.7887L203.972 25.8565C203.614 25.3216 203.012 25.0013 202.369 25.0034L160.634 25.1398C160.583 25.14 160.534 25.1609 160.498 25.1978V25.1978C160.463 25.2348 160.413 25.2557 160.362 25.2557H153.354C152.9 25.2557 152.461 25.4167 152.114 25.71L149.775 27.6886C148.939 28.3954 147.673 27.694 147.829 26.6107V26.6107C147.932 25.8951 147.379 25.2537 146.656 25.2515L103.922 25.1186C103.339 25.1167 102.787 25.3798 102.421 25.8337L101.457 27.0289C100.708 27.9583 99.2089 27.5086 99.0949 26.3203V26.3203C99.0293 25.6372 98.4554 25.1157 97.7691 25.1157H71.1319L58.7866 25.1157C58.2057 25.1157 57.656 25.3786 57.2914 25.8309L56.3256 27.0289C55.5763 27.9583 54.077 27.5086 53.963 26.3203C53.8974 25.6372 53.3235 25.1157 52.6372 25.1157H27.9205C26.8598 25.1157 26 25.9755 26 27.0362V136.389C26 137.45 26.8603 138.309 27.9213 138.309L54.9568 138.297C56.0172 138.297 56.8765 137.437 56.8765 136.377V62.9019C56.8765 62.4269 57.0525 61.9688 57.3706 61.616L59.6981 59.0339C60.0623 58.63 60.5807 58.3993 61.1246 58.3993H69.3614ZM215.608 94.5862C214.55 94.5828 213.694 93.7242 213.694 92.6661L213.679 31.1939C213.679 30.131 214.542 29.27 215.605 29.2729L273.247 29.4302C273.767 29.4316 274.263 29.6433 274.624 30.017L286.136 41.9444C286.481 42.3024 286.674 42.7806 286.674 43.2781V70.2772C286.674 70.771 286.484 71.2458 286.143 71.603L278.335 79.786C277.627 80.5281 277.627 81.6956 278.335 82.4376L286.86 91.3719C287.201 91.7292 287.391 92.204 287.391 92.6977V120.003C287.391 120.497 287.201 120.972 286.86 121.329L275.344 133.398C274.982 133.778 274.479 133.993 273.954 133.993L149.534 133.927C148.474 133.927 147.615 133.067 147.615 132.007V94.6528V88.387C147.615 87.8941 147.804 87.4201 148.144 87.0631L159.638 74.9837C160.001 74.6027 160.503 74.3871 161.029 74.3871H178.681H185.822C186.893 74.3871 187.757 73.5111 187.742 72.4403L187.517 56.0451C187.503 54.9948 186.647 54.1509 185.597 54.1509H155.269C154.798 54.1509 154.343 54.3241 153.992 54.6376L143.894 63.6357C143.485 64.0001 143.251 64.5218 143.251 65.0695V94.6863V132.073C143.251 133.133 142.392 133.993 141.331 133.993H122.453C121.393 133.993 120.533 133.133 120.533 132.073V56.0031C120.533 54.9424 119.673 54.0826 118.612 54.0826H104.5C103.959 54.0826 103.443 54.3111 103.079 54.7117L98.3885 59.8746C98.0674 60.2281 97.8895 60.6885 97.8895 61.166V132.06C97.8895 133.121 97.0304 133.98 95.9701 133.981L77.3224 133.992C76.2613 133.993 75.4008 133.133 75.4008 132.071V56.0031C75.4008 55.7388 75.3474 55.487 75.2508 55.2578C74.9598 54.5673 74.2766 54.0826 73.4803 54.0826H71.1319H59.3682C58.8269 54.0826 58.3107 54.3111 57.9467 54.7117L53.2566 59.8746C52.9355 60.2281 52.7576 60.6885 52.7576 61.166V132.06C52.7576 133.121 51.8985 133.98 50.8382 133.981L32.0406 133.992C30.9794 133.993 30.1189 133.133 30.1189 132.072V31.3529C30.1189 30.2923 30.9788 29.4324 32.0394 29.4324H48.2356C49.2963 29.4324 50.1562 30.2923 50.1562 31.3529V35.9288C50.1562 37.7407 52.4347 38.5447 53.5718 37.1341L59.2038 30.1476C59.5684 29.6954 60.1181 29.4324 60.699 29.4324L71.1319 29.4324L75.2883 29.5725L93.3541 29.446C94.42 29.4385 95.2881 30.3005 95.2881 31.3664V35.9288C95.2881 37.7407 97.5666 38.5447 98.7037 37.1341L104.333 30.151C104.699 29.6968 105.252 29.4337 105.835 29.4358L141.338 29.5655C142.396 29.5693 143.251 30.428 143.251 31.486V35.1853C143.251 36.8331 145.19 37.7157 146.433 36.6337L154.004 30.0424C154.352 29.7393 154.797 29.5717 155.259 29.5703L201.773 29.4324V29.4324C201.785 29.4324 201.797 29.4388 201.803 29.4493L209.449 41.8658V92.6596C209.449 93.7203 208.589 94.5801 207.528 94.5801H176.381C175.32 94.5801 174.46 95.44 174.46 96.5006V111.441C174.46 112.501 175.32 113.361 176.381 113.361H214.894L266.637 113.877C267.705 113.888 268.576 113.025 268.576 111.957V100.812C268.576 100.328 268.394 99.8616 268.064 99.5065L264.267 95.4088C263.907 95.0207 263.403 94.7982 262.874 94.7939L251.635 94.702C250.581 94.6934 249.73 93.8361 249.73 92.7816V77.4936C249.73 76.4329 250.59 75.5731 251.651 75.5731H266.656C267.717 75.5731 268.577 74.7132 268.577 73.6526V50.4971C268.577 50.0129 268.394 49.5466 268.065 49.1915L264.273 45.1011C263.909 44.709 263.399 44.4862 262.864 44.4862H238.646C237.586 44.4862 236.726 45.3456 236.725 46.4059L236.707 92.7269C236.707 93.7897 235.844 94.65 234.781 94.6467L215.608 94.5862ZM157.956 70.7156C158.319 70.3346 158.821 70.119 159.347 70.119H178.681H181.787C182.848 70.119 183.708 69.2591 183.708 68.1984V60.3233C183.708 59.2626 182.848 58.4028 181.787 58.4028H157.055C156.595 58.4028 156.15 58.5678 155.801 58.8679L148.038 65.5524C147.614 65.9172 147.37 66.4486 147.37 67.0078V77.0365C147.37 78.7706 149.487 79.6166 150.682 78.3603L157.956 70.7156ZM247.532 71.2563C246.471 71.2563 245.612 72.1162 245.612 73.1768V94.6528V97.8755C245.612 98.9362 246.471 99.796 247.532 99.796H261.829C262.384 99.796 262.912 100.036 263.277 100.455L263.985 101.268C264.29 101.618 264.458 102.066 264.458 102.53V107.648C264.458 108.713 263.591 109.575 262.526 109.569L181.31 109.105C180.254 109.099 179.4 108.24 179.4 107.184V101.331C179.4 100.266 180.268 99.4041 181.333 99.4109L238.945 99.7837C239.997 99.7906 240.859 98.9486 240.877 97.896L240.933 94.6145L240.845 71.2563V50.7234C240.845 49.6627 241.705 48.8029 242.766 48.8029H261.123C261.658 48.8029 262.168 49.0257 262.532 49.4178L263.946 50.9433C264.275 51.2984 264.458 51.7647 264.458 52.2489V69.3358C264.458 70.3965 263.598 71.2563 262.537 71.2563H247.532Z" fill="#212121"/>
</g>
<defs>
<clipPath id="clip0_153_2739">
<rect width="265.51" height="113.31" fill="white" transform="translate(26 25)"/>
</clipPath>
</defs>
</svg>
