<svg width="262" height="201" viewBox="0 0 262 201" fill="none" xmlns="http://www.w3.org/2000/svg">
<g clip-path="url(#clip0_153_2791)">
<path fill-rule="evenodd" clip-rule="evenodd" d="M144.502 29.5571L149.676 37.9394L144.522 29.5684C144.518 29.5614 144.51 29.5571 144.502 29.5571V29.5571Z" fill="white"/>
<path fill-rule="evenodd" clip-rule="evenodd" d="M75.9487 102.951C76.6636 102.951 77.2429 102.371 77.2429 101.656V52.1213C77.2429 51.8011 77.3616 51.4922 77.576 51.2544L79.1452 49.5136C79.3907 49.2413 79.7402 49.0858 80.1069 49.0858H85.6599C86.375 49.0858 86.9546 49.6655 86.9546 50.3806V101.66C86.9546 102.377 87.5372 102.957 88.2541 102.955L107.825 102.884L194.314 102.959C194.669 102.959 195.008 102.814 195.252 102.558L204.642 92.7172C204.872 92.4763 205 92.1562 205 91.8234V71.0036C205 70.6707 204.872 70.3506 204.642 70.1098L200.045 65.2915C199.567 64.7912 199.568 64.0041 200.045 63.5039L204.159 59.1927C204.388 58.9519 204.517 58.6318 204.517 58.2989V37.6764C204.517 37.3409 204.387 37.0186 204.154 36.7772L194.758 27.0425C194.514 26.7896 194.178 26.6468 193.827 26.6468H150.971C150.256 26.6468 149.676 27.2265 149.676 27.9416V28.4035C149.676 29.6837 148.017 30.1874 147.305 29.1231L145.984 27.1463C145.743 26.7856 145.337 26.5697 144.903 26.5711L116.767 26.6631C116.732 26.6632 116.699 26.6773 116.675 26.7022V26.7022C116.651 26.7272 116.618 26.7413 116.583 26.7413H111.859C111.553 26.7413 111.257 26.8498 111.023 27.0475L109.446 28.3814C108.883 28.8579 108.029 28.3851 108.134 27.6547V27.6547C108.204 27.1723 107.83 26.7399 107.343 26.7384L78.5331 26.6488C78.1401 26.6476 77.7677 26.8249 77.5211 27.1309L76.8715 27.9367C76.3664 28.5633 75.3555 28.2601 75.2787 27.459V27.459C75.2345 26.9984 74.8476 26.6468 74.3849 26.6468H56.4268L48.1039 26.6468C47.7122 26.6468 47.3416 26.8241 47.0959 27.129L46.4447 27.9367C45.9396 28.5633 44.9288 28.2601 44.8519 27.459C44.8077 26.9984 44.4208 26.6468 43.9581 26.6468H27.2948C26.5797 26.6468 26 27.2265 26 27.9416V101.664C26 102.379 26.58 102.959 27.2953 102.959L45.522 102.951C46.2368 102.951 46.8162 102.371 46.8162 101.656V52.1213C46.8162 51.8011 46.9348 51.4922 47.1492 51.2544L48.7184 49.5136C48.9639 49.2413 49.3134 49.0858 49.6801 49.0858H55.2331C55.6767 49.0858 56.0681 49.3088 56.3014 49.6489C56.3992 49.7913 56.4268 49.9671 56.4268 50.1398V101.664C56.4268 102.379 57.0068 102.959 57.7221 102.959L75.9487 102.951ZM59.3047 47.4703C59.3047 47.2922 59.2687 47.1224 59.2036 46.9679C59.0074 46.5024 58.5469 46.1756 58.01 46.1756H56.4268H48.496C48.131 46.1756 47.783 46.3296 47.5376 46.5997L44.3757 50.0804C44.1592 50.3187 44.0393 50.6291 44.0393 50.951V98.7462C44.0393 99.461 43.4601 100.041 42.7453 100.041L30.0724 100.048C29.357 100.049 28.7769 99.4691 28.7769 98.7537V30.8518C28.7769 30.1368 29.3565 29.5571 30.0716 29.5571H40.9907C41.7058 29.5571 42.2855 30.1368 42.2855 30.8518V33.9368C42.2855 35.1583 43.8216 35.7003 44.5882 34.7494L48.3852 30.0392C48.6309 29.7343 49.0015 29.5571 49.3932 29.5571L56.4268 29.5571L59.2289 29.6515L71.4084 29.5662C72.127 29.5612 72.7122 30.1423 72.7122 30.8609V33.9368C72.7122 35.1583 74.2484 35.7003 75.015 34.7494L78.8101 30.0415C79.0569 29.7353 79.4296 29.5579 79.8228 29.5593L103.758 29.6468C104.471 29.6494 105.048 30.2283 105.048 30.9415V33.4355C105.048 34.5464 106.355 35.1415 107.193 34.412L112.297 29.9683C112.531 29.764 112.832 29.651 113.143 29.6501L144.502 29.5571V29.5571C144.51 29.5571 144.518 29.5614 144.522 29.5684L149.676 37.9394V72.1832C149.676 72.8983 149.097 73.478 148.382 73.478H127.383C126.668 73.478 126.088 74.0577 126.088 74.7727V84.845C126.088 85.5601 126.668 86.1397 127.383 86.1397H153.347L188.231 86.4876C188.951 86.4948 189.539 85.9131 189.539 85.193V77.6793C189.539 77.353 189.415 77.0386 189.194 76.7992L186.633 74.0367C186.391 73.775 186.051 73.625 185.694 73.6221L178.117 73.5601C177.407 73.5543 176.833 72.9764 176.833 72.2654V61.9587C176.833 61.2436 177.413 60.6639 178.128 60.6639H188.244C188.959 60.6639 189.539 60.0842 189.539 59.3691V43.7583C189.539 43.4319 189.416 43.1175 189.194 42.8781L186.637 40.1205C186.392 39.8561 186.048 39.7059 185.688 39.7059H169.36C168.645 39.7059 168.066 40.2853 168.066 41.0002L168.053 72.2286C168.053 72.9451 167.471 73.5251 166.755 73.5228L153.834 73.482C153.121 73.4798 152.543 72.9011 152.543 72.1878L152.529 30.7447C152.528 30.0281 153.11 29.4476 153.827 29.4495L192.688 29.5556C193.038 29.5565 193.373 29.6992 193.616 29.9512L201.377 37.9923C201.61 38.2337 201.74 38.5561 201.74 38.8915V57.0936C201.74 57.4265 201.612 57.7466 201.382 57.9874L196.118 63.5042C195.641 64.0045 195.641 64.7915 196.118 65.2918L201.865 71.3151C202.095 71.5559 202.223 71.876 202.223 72.2089V90.6177C202.223 90.9506 202.095 91.2707 201.865 91.5115L194.102 99.648C193.857 99.9042 193.518 100.049 193.164 100.049L109.284 100.005C108.569 100.004 107.99 99.4247 107.99 98.7099V73.5269V69.3027C107.99 68.9704 108.117 68.6509 108.346 68.4102L116.095 60.2666C116.34 60.0097 116.679 59.8643 117.033 59.8643H128.934H133.748C134.47 59.8643 135.052 59.2738 135.042 58.5518L134.891 47.4986C134.881 46.7906 134.304 46.2216 133.596 46.2216H113.15C112.832 46.2216 112.526 46.3384 112.289 46.5497L105.481 52.616C105.206 52.8617 105.048 53.2134 105.048 53.5827V73.5496V98.7544C105.048 99.4695 104.468 100.049 103.753 100.049H91.0263C90.3112 100.049 89.7315 99.4695 89.7315 98.7544V47.4703C89.7315 46.7553 89.1518 46.1756 88.4367 46.1756H78.9228C78.5578 46.1756 78.2098 46.3296 77.9644 46.5997L74.8024 50.0804C74.586 50.3187 74.4661 50.6291 74.4661 50.951V98.7462C74.4661 99.461 73.8868 100.041 73.1721 100.041L60.6003 100.048C59.8849 100.049 59.3047 99.4691 59.3047 98.7537V47.4703ZM174.056 73.5269V59.0484C174.056 58.3334 174.636 57.7537 175.351 57.7537H185.467C186.182 57.7537 186.762 57.174 186.762 56.4589V44.9393C186.762 44.6129 186.639 44.2985 186.417 44.0592L185.464 43.0307C185.218 42.7664 184.874 42.6161 184.514 42.6161H172.138C171.423 42.6161 170.843 43.1958 170.843 43.9109V57.7537L170.903 73.5012L170.865 75.7135C170.853 76.4231 170.272 76.9907 169.562 76.9861L130.722 76.7348C130.003 76.7301 129.419 77.3112 129.419 78.0295V81.9752C129.419 82.6874 129.994 83.2659 130.706 83.27L185.46 83.583C186.178 83.5871 186.762 83.0062 186.762 82.2883V78.8373C186.762 78.5246 186.649 78.2224 186.443 77.9867L185.966 77.4385C185.72 77.1564 185.364 76.9944 184.99 76.9944H175.351C174.636 76.9944 174.056 76.4147 174.056 75.6996V73.5269ZM128.934 56.9869H115.899C115.545 56.9869 115.206 57.1323 114.961 57.3891L110.058 62.543C109.252 63.3899 107.825 62.8196 107.825 61.6505V54.8894C107.825 54.5124 107.989 54.1542 108.275 53.9082L113.509 49.4017C113.744 49.1994 114.044 49.0881 114.354 49.0881H131.028C131.743 49.0881 132.323 49.6678 132.323 50.3829V55.6921C132.323 56.4072 131.743 56.9869 131.028 56.9869H128.934Z" fill="white"/>
</g>
<path d="M32.4807 146.29H28.3465V126.847H40.2184L42.6487 129.278V136.96L39.4083 140.228H32.4807V146.29ZM32.4807 136.68H37.5647L38.5424 135.703V130.563H32.4807V136.68ZM52.8835 146.29H48.7492V126.847H60.4257L62.8839 129.278V136.205L60.9843 138.133L62.9956 140.144V146.29H58.8614V140.842L57.8557 139.865H52.8835V146.29ZM58.7776 135.507V130.227H52.8835V136.485H57.7999L58.7776 135.507ZM81.5495 146.29H71.3536L68.8954 143.831V129.278L71.3536 126.847H81.5495L84.0077 129.278V143.831L81.5495 146.29ZM73.0296 130.563V142.546H79.9014V130.563H73.0296ZM98.7235 146.29H91.2092L88.7789 143.831V138.384H92.8853V142.546H97.0474V126.736H101.182V143.831L98.7235 146.29ZM120.84 146.29H108.103V126.847H120.701V130.563H112.237V134.976H118.913V138.161H112.237V142.546H120.84V146.29ZM124.753 130.563V126.847H139.112V130.563H134V146.29H129.865V130.563H124.753ZM156.423 146.29H146.227L143.768 143.831V129.278L146.227 126.847H156.423L158.881 129.278V143.831L156.423 146.29ZM147.903 130.563V142.546H154.774V130.563H147.903ZM176.222 146.29H167.116L164.658 143.831V140.451H168.68V142.91H174.63V138.245H167.172L164.741 135.814V129.278L167.172 126.847H176.055L178.513 129.278V132.881H174.49V130.227H168.764V134.865H176.222L178.653 137.323V143.831L176.222 146.29ZM205.505 146.29H192.767V126.847H205.365V130.563H196.901V134.976H203.577V138.161H196.901V142.546H205.505V146.29ZM40.0229 172.29H30.3298L27.8716 169.831V155.278L30.3298 152.847H40.0229L42.4532 155.278V159.803H38.3189V156.563H32.0058V168.546H38.3189V165.334H42.4532V169.831L40.0229 172.29ZM60.6284 172.29H50.4325L47.9743 169.831V155.278L50.4325 152.847H60.6284L63.0866 155.278V169.831L60.6284 172.29ZM52.1085 156.563V168.546H58.9803V156.563H52.1085ZM73.5564 172.29H69.5339V152.847H73.5564V155.278L81.8249 164.58C81.7876 164.04 81.7411 163.434 81.6852 162.764C81.648 162.094 81.6294 161.507 81.6294 161.004V152.847H85.6519V172.29H81.6294V169.831L73.3609 160.529C73.4167 161.069 73.4633 161.675 73.5005 162.345C73.5378 163.015 73.5564 163.611 73.5564 164.133V172.29ZM103.504 172.29H94.3978L91.9396 169.831V166.451H95.9621V168.91H101.912V164.245H94.4537L92.0234 161.814V155.278L94.4537 152.847H103.337L105.795 155.278V158.881H101.772V156.227H96.0459V160.865H103.504L105.935 163.323V169.831L103.504 172.29ZM123.032 152.847H127.166V169.831L124.708 172.29H114.54L112.082 169.831V152.847H116.216V168.546H123.032V152.847ZM145.554 172.29H133.934V152.847H138.068V168.546H145.554V172.29ZM146.657 156.563V152.847H161.015V156.563H155.903V172.29H151.768V156.563H146.657ZM178.326 172.29H168.13L165.672 169.831V155.278L168.13 152.847H178.326L180.784 155.278V169.831L178.326 172.29ZM169.806 156.563V168.546H176.678V156.563H169.806ZM191.365 172.29H187.231V152.847H198.908L201.366 155.278V162.205L199.466 164.133L201.478 166.144V172.29H197.343V166.842L196.338 165.865H191.365V172.29ZM197.26 161.507V156.227H191.365V162.485H196.282L197.26 161.507ZM207.852 172.29V152.847H211.986V172.29H207.852ZM221.467 172.29H217.333V168.518L222.669 152.847H228.311L233.647 168.491V172.29H229.512V168.965L229.066 167.625H221.914L221.467 168.965V172.29ZM225.49 156.255L222.752 164.245H228.227L225.49 156.255Z" fill="white"/>
<path d="M34.0576 122.468H29.0867L28.1466 121.54V116.621L29.0867 115.694H34.0576L34.9977 116.621V121.54L34.0576 122.468ZM29.1897 116.634V121.528H33.9674V116.634H29.1897ZM31.0956 120.871H30.1942V117.291H32.538L32.9887 117.767V118.965L32.6024 119.364L33.0402 119.802V120.871H32.1516V119.944L31.9198 119.725H31.0956V120.871ZM32.1001 118.81V117.999H31.0956V119.016H31.9069L32.1001 118.81Z" fill="white"/>
<defs>
<clipPath id="clip0_153_2791">
<rect width="179" height="76.3906" fill="white" transform="translate(26 26.569)"/>
</clipPath>
</defs>
</svg>
